<svg width="56" height="56" viewBox="0 0 56 56" fill="none" xmlns="http://www.w3.org/2000/svg">
<path fill-rule="evenodd" clip-rule="evenodd" d="M9.33337 14C9.33337 8.84535 13.512 4.66667 18.6667 4.66667H37.3334C42.488 4.66667 46.6667 8.84534 46.6667 14V42C46.6667 47.1547 42.488 51.3333 37.3334 51.3333H18.6667C13.512 51.3333 9.33337 47.1547 9.33337 42V14ZM18.6667 9.33333C16.0894 9.33333 14 11.4227 14 14V42C14 44.5773 16.0894 46.6667 18.6667 46.6667H37.3334C39.9107 46.6667 42 44.5773 42 42V14C42 11.4227 39.9107 9.33333 37.3334 9.33333H18.6667Z" fill="#808080"/>
<path fill-rule="evenodd" clip-rule="evenodd" d="M18.6666 21C18.6666 19.7113 19.7113 18.6667 21 18.6667H35C36.2886 18.6667 37.3333 19.7113 37.3333 21C37.3333 22.2887 36.2886 23.3333 35 23.3333H21C19.7113 23.3333 18.6666 22.2887 18.6666 21Z" fill="#808080"/>
<path fill-rule="evenodd" clip-rule="evenodd" d="M18.6666 4.66667H18.9259C21.8252 4.66667 24.2613 6.64965 24.9521 9.33333H31.0478C31.7386 6.64965 34.1747 4.66667 37.074 4.66667H37.3333V9.33333H37.074C36.2149 9.33333 35.5185 10.0298 35.5185 10.8889C35.5185 12.6071 34.1256 14 32.4074 14H23.5926C21.8743 14 20.4814 12.6071 20.4814 10.8889C20.4814 10.0298 19.785 9.33333 18.9259 9.33333H18.6666V4.66667Z" fill="#808080"/>
<path fill-rule="evenodd" clip-rule="evenodd" d="M18.6666 30.3333C18.6666 29.0447 19.7113 28 21 28H35C36.2886 28 37.3333 29.0447 37.3333 30.3333C37.3333 31.622 36.2886 32.6667 35 32.6667H21C19.7113 32.6667 18.6666 31.622 18.6666 30.3333Z" fill="#808080"/>
<path fill-rule="evenodd" clip-rule="evenodd" d="M19 38.335C19 37.0454 20.0454 36 21.335 36H23.67C24.9596 36 26.005 37.0454 26.005 38.335C26.005 39.6246 24.9596 40.67 23.67 40.67H21.335C20.0454 40.67 19 39.6246 19 38.335Z" fill="#808080"/>
</svg>
