<svg width="24" height="24" viewBox="0 0 24 24" fill="none" xmlns="http://www.w3.org/2000/svg">
<path fill-rule="evenodd" clip-rule="evenodd" d="M6 5.67966C6 5.24888 6.34922 4.89966 6.78 4.89966H17.7C18.1308 4.89966 18.48 5.24888 18.48 5.67966C18.48 6.11044 18.1308 6.45966 17.7 6.45966H6.78C6.34922 6.45966 6 6.11044 6 5.67966Z" fill="#808080"/>
<path fill-rule="evenodd" clip-rule="evenodd" d="M7.50024 8.02199C7.92976 7.98895 8.30473 8.31035 8.33777 8.73987L8.95158 16.7193C9.01409 17.5321 9.69182 18.1597 10.507 18.1597H13.9732C14.7883 18.1597 15.466 17.5321 15.5286 16.7193L16.1424 8.73987C16.1754 8.31035 16.5504 7.98895 16.9799 8.02199C17.4094 8.05503 17.7308 8.43 17.6978 8.85951L17.084 16.839C16.9589 18.4645 15.6035 19.7197 13.9732 19.7197H10.507C8.87667 19.7197 7.52121 18.4645 7.39617 16.839L6.78236 8.85951C6.74933 8.43 7.07073 8.05503 7.50024 8.02199Z" fill="#808080"/>
<path fill-rule="evenodd" clip-rule="evenodd" d="M12.2401 5.79708C12.6913 6.21815 13.2902 6.45968 13.9212 6.45968L15.3601 6.45968V4.89968L13.9212 4.89968C13.619 4.89968 13.3369 4.74868 13.1693 4.49728C12.7273 3.83424 11.753 3.83424 11.3109 4.49728C11.1433 4.74868 10.8612 4.89968 10.5591 4.89968L9.12012 4.89968V6.45968L10.559 6.45968C11.19 6.45968 11.789 6.21815 12.2401 5.79708Z" fill="#808080"/>
</svg>
